<?xml version="1.0" encoding="utf-8"?>
<!-- Generator: Adobe Illustrator 16.0.3, SVG Export Plug-In . SVG Version: 6.00 Build 0)  -->
<!DOCTYPE svg PUBLIC "-//W3C//DTD SVG 1.1//EN" "http://www.w3.org/Graphics/SVG/1.1/DTD/svg11.dtd">
<svg version="1.1" id="Capa_1" xmlns="http://www.w3.org/2000/svg" xmlns:xlink="http://www.w3.org/1999/xlink" x="0px" y="0px"
	 width="30px" height="30px" viewBox="0 0 30 30" enable-background="new 0 0 30 30" xml:space="preserve">
<path fill="#818080" d="M22.213,19.591L17.627,15l4.586-4.587c0.191-0.196,0.287-0.409,0.287-0.66c0-0.244-0.096-0.463-0.291-0.652
	l-1.311-1.313c-0.191-0.192-0.404-0.284-0.652-0.284c-0.246,0-0.465,0.092-0.66,0.284l-4.583,4.587L10.41,7.787
	c-0.191-0.192-0.408-0.284-0.655-0.284C9.509,7.498,9.291,7.594,9.099,7.787L7.789,9.1C7.598,9.289,7.5,9.508,7.5,9.752
	c0,0.251,0.094,0.464,0.285,0.658L12.376,15l-4.591,4.591C7.591,19.777,7.5,20,7.5,20.243c0,0.251,0.098,0.472,0.285,0.657
	l1.314,1.315c0.188,0.19,0.408,0.285,0.656,0.282c0.247,0,0.464-0.092,0.655-0.282l4.592-4.591l4.587,4.591
	c0.191,0.19,0.41,0.282,0.656,0.282c0.242,0.003,0.461-0.099,0.652-0.282l1.311-1.317c0.195-0.188,0.291-0.409,0.291-0.655
	C22.5,20,22.404,19.777,22.213,19.591L22.213,19.591z M22.213,19.591"/>
</svg>
