<svg width="22" height="19" viewBox="0 0 22 19" fill="none" xmlns="http://www.w3.org/2000/svg">
<path fill-rule="evenodd" clip-rule="evenodd" d="M7.5 7.5C9.56786 7.5 11.25 5.81786 11.25 3.75C11.25 1.68214 9.56786 0 7.5 0C5.43214 0 3.75 1.68214 3.75 3.75C3.75 5.81786 5.43214 7.5 7.5 7.5ZM0 13.125C0 10.6286 4.99286 9.375 7.5 9.375C10.0071 9.375 15 10.6286 15 13.125V19H0V13.125ZM7.50006 11.5179C5.00012 11.5179 3.4072 12.2357 2.5072 12.8572L2.49999 17H12.5L12.4929 12.8572C11.5929 12.2357 9.99999 11.5179 7.50006 11.5179ZM9.10716 3.75002C9.10716 2.86073 8.3893 2.14287 7.50002 2.14287C6.61073 2.14287 5.89287 2.86073 5.89287 3.75002C5.89287 4.6393 6.61073 5.35716 7.50002 5.35716C8.3893 5.35716 9.10716 4.6393 9.10716 3.75002ZM15.0429 9.43925C16.2857 10.3392 17.1429 11.5392 17.1429 13.125V17H21.4286V13.125C21.4286 10.9607 17.6786 9.72853 15.0429 9.43925ZM17.6786 3.75C17.6786 5.81786 15.9964 7.5 13.9286 7.5C13.35 7.5 12.8143 7.36071 12.3214 7.125C12.9964 6.17143 13.3929 5.00357 13.3929 3.75C13.3929 2.49643 12.9964 1.32857 12.3214 0.375C12.8143 0.139286 13.35 0 13.9286 0C15.9964 0 17.6786 1.68214 17.6786 3.75Z" fill="black"/>
</svg>
