<svg width="20" height="22" viewBox="0 0 20 22" fill="none" xmlns="http://www.w3.org/2000/svg">
<path fill-rule="evenodd" clip-rule="evenodd" d="M0.9 0H17.1C17.5 0 18 0.4 18 0.9V6H16V2H2V16H7V18H0.9C0.4 18 0 17.5 0 17.1V0.9C0 0.4 0.4 0 0.9 0ZM8 6H14V4H8V6ZM4 4H6V6H4V4ZM6 8H4V10H6V8ZM4 12H6V14H4V12Z" fill="black"/>
<path fill-rule="evenodd" clip-rule="evenodd" d="M10.6944 8C9.76193 8 9 8.76193 9 9.69444V21.6291L14.3056 19.3553L19.6111 21.6291V9.69444C19.6111 8.76193 18.8492 8 17.9167 8H10.6944ZM10.9444 18.7016V9.94444H17.6667V18.7016L14.3056 17.2362L10.9444 18.7016Z" fill="black"/>
</svg>
