<svg width="15" height="15" viewBox="0 0 15 15" fill="none" xmlns="http://www.w3.org/2000/svg">
<path fill-rule="evenodd" clip-rule="evenodd" d="M8.75 1.25H3.75C3.0625 1.25 2.50625 1.8125 2.50625 2.5L2.5 12.5C2.5 13.1875 3.05625 13.75 3.74375 13.75H11.25C11.9375 13.75 12.5 13.1875 12.5 12.5V5L8.75 1.25ZM3.75001 2.5H8.12501L11.25 5.625V10.9875L10.1 9.8375C10.9 8.625 10.7688 6.98125 9.70001 5.9125C9.09376 5.30625 8.30001 5 7.50001 5C6.70001 5 5.90626 5.30625 5.29376 5.9125C4.07501 7.13125 4.07501 9.10625 5.29376 10.3188C5.90001 10.925 6.70001 11.2313 7.50001 11.2313C8.10001 11.2313 8.70001 11.0563 9.21876 10.7125L11 12.5H3.75001V2.5ZM7.49999 9.9875C7.99999 9.9875 8.46874 9.7875 8.81874 9.4375C9.17499 9.0875 9.36874 8.61875 9.36874 8.11875C9.36874 7.61875 9.16874 7.15 8.81874 6.8C8.46874 6.44375 7.99999 6.25 7.49999 6.25C6.99999 6.25 6.53124 6.44375 6.18124 6.8C5.82499 7.15 5.63124 7.61875 5.63124 8.11875C5.63124 8.61875 5.83124 9.0875 6.18124 9.4375C6.53124 9.79375 6.99999 9.9875 7.49999 9.9875Z" fill="black"/>
</svg>
