<svg width="11" height="13" viewBox="0 0 11 13" fill="none" xmlns="http://www.w3.org/2000/svg">
<path fill-rule="evenodd" clip-rule="evenodd" d="M1.75 0.25H6.75L10.5 4V11.5C10.5 12.1875 9.9375 12.75 9.25 12.75H1.74375C1.05625 12.75 0.5 12.1875 0.5 11.5L0.50625 1.5C0.50625 0.8125 1.0625 0.25 1.75 0.25ZM7.40001 6.6V5.25C7.40001 4.008 6.39201 3 5.15001 3C3.90801 3 2.90001 4.008 2.90001 5.25V6.6C2.40501 6.6 2.00001 7.005 2.00001 7.5V11.1C2.00001 11.595 2.40501 12 2.90001 12H7.40001C7.89501 12 8.30001 11.595 8.30001 11.1V7.5C8.30001 7.005 7.89501 6.6 7.40001 6.6ZM6.50001 6.6H3.80001V5.25C3.80001 4.503 4.40301 3.9 5.15001 3.9C5.89701 3.9 6.50001 4.503 6.50001 5.25V6.6Z" fill="black"/>
</svg>
