<svg width="19" height="22" viewBox="0 0 19 22" fill="none" xmlns="http://www.w3.org/2000/svg">
<path fill-rule="evenodd" clip-rule="evenodd" d="M12.8334 3.66669H5.50002C4.49169 3.66669 3.66669 4.49169 3.66669 5.50002V20.1667C3.66669 21.175 4.48252 22 5.49085 22H16.5C17.5084 22 18.3334 21.175 18.3334 20.1667V9.16669L12.8334 3.66669ZM14.6667 12.8333H7.33333V14.6667H14.6667V12.8333ZM14.6667 16.5H7.33333V18.3333H14.6667V16.5ZM5.5 20.1667H16.5V10.0833H11.9167V5.5H5.5V20.1667Z" fill="black"/>
<path d="M12.8333 0H1.83333C0.825 0 0 0.825 0 1.83333V14.6667H1.83333V1.83333H12.8333V0Z" fill="black"/>
</svg>
