<svg width="18" height="18" viewBox="0 0 18 18" fill="none" xmlns="http://www.w3.org/2000/svg">
<path fill-rule="evenodd" clip-rule="evenodd" d="M7.19978 13.6596C4.05403 13.6596 1.50391 11.1094 1.50391 7.96369C1.50391 4.81795 4.05403 2.26782 7.19978 2.26782C10.3455 2.26782 12.8956 4.81795 12.8956 7.96369C12.8956 9.27994 12.4492 10.4919 11.6994 11.4564L15.5351 15.2921L14.5282 16.299L10.6925 12.4633C9.728 13.2131 8.51603 13.6596 7.19978 13.6596ZM11.4717 7.96375C11.4717 10.3231 9.55914 12.2357 7.19984 12.2357C4.84053 12.2357 2.92793 10.3231 2.92793 7.96375C2.92793 5.60445 4.84053 3.69185 7.19984 3.69185C9.55914 3.69185 11.4717 5.60445 11.4717 7.96375Z" fill="#00A7B8"/>
</svg>
