<?xml version="1.0" encoding="utf-8"?>
<!-- Generator: Adobe Illustrator 16.0.3, SVG Export Plug-In . SVG Version: 6.00 Build 0)  -->
<!DOCTYPE svg PUBLIC "-//W3C//DTD SVG 1.1//EN" "http://www.w3.org/Graphics/SVG/1.1/DTD/svg11.dtd">
<svg version="1.1" id="Capa_1" xmlns="http://www.w3.org/2000/svg" xmlns:xlink="http://www.w3.org/1999/xlink" x="0px" y="0px"
	 width="30px" height="30px" viewBox="0 0 30 30" enable-background="new 0 0 30 30" xml:space="preserve">
<g>
	<path fill="#059974" d="M15.001,1c-3.65,0-5.488,2.957-5.488,6.608c0,3.648,1.838,6.606,5.488,6.606
		c3.652,0,5.486-2.958,5.486-6.608C20.487,3.957,18.653,1,15.001,1z M15.001,11.201c-1.986,0-2.984-1.608-2.984-3.593
		c0-1.986,0.998-3.596,2.984-3.596s2.984,1.609,2.984,3.595S16.987,11.201,15.001,11.201z"/>
	<path fill="#059974" d="M17.806,16.059h-5.608c-4.665,0-8.46,3.797-8.46,8.463v2.371l0.018,0.106l0.473,0.146
		C8.678,28.536,12.547,29,15.73,29c6.221,0,9.822-1.774,10.048-1.887l0.439-0.221h0.045v-2.371
		C26.266,19.855,22.468,16.059,17.806,16.059z M22.484,25.131h-0.029l-0.292,0.133c-0.149,0.066-2.544,1.124-6.678,1.124
		c-2.115,0-4.687-0.276-7.646-1.105l-0.313-0.087l-0.012-0.064v-1.414c0-2.782,2.521-5.046,5.623-5.046h3.727
		c3.1,0,5.624,2.264,5.62,5.046V25.131z"/>
</g>
</svg>
